<svg width="38" height="38" viewBox="0 0 38 38" fill="none" xmlns="http://www.w3.org/2000/svg">
<g clip-path="url(#clip0_330_19)">
<path d="M36.4478 16.819C36.0357 13.4708 34.663 10.3136 32.4954 7.72863C32.721 7.33904 32.8092 6.88495 32.7458 6.43924C32.6824 5.99354 32.4711 5.58206 32.1458 5.27084C31.8205 4.95963 31.4 4.76673 30.952 4.7231C30.5039 4.67947 30.0541 4.78764 29.6749 5.03026C27.0582 3.02189 23.9266 1.79492 20.642 1.49111C20.5266 1.05616 20.2686 0.672548 19.9092 0.401783C19.5497 0.131019 19.1098 -0.0112098 18.6599 -0.00209591C18.21 0.007018 17.7762 0.166946 17.4281 0.452044C17.0799 0.737142 16.8376 1.13089 16.74 1.57016C13.5665 1.98837 10.5688 3.26974 8.07354 5.27458C7.68565 5.0032 7.21436 4.87756 6.74285 4.91982C6.27134 4.96208 5.82991 5.16952 5.49646 5.50556C5.163 5.84159 4.95896 6.2846 4.92033 6.75643C4.88171 7.22825 5.01098 7.69855 5.28534 8.08434C3.28723 10.598 2.02154 13.6143 1.62763 16.8011C1.16686 16.8835 0.749261 17.124 0.446724 17.4812C0.144186 17.8384 -0.0243572 18.2899 -0.0298887 18.7579C-0.0354202 19.226 0.122406 19.6813 0.416418 20.0455C0.71043 20.4098 1.12223 20.6601 1.58092 20.7534C1.90809 23.9915 3.13533 27.0732 5.12365 29.6498C4.86097 30.0312 4.73814 30.4916 4.77596 30.9531C4.81378 31.4147 5.00993 31.849 5.33119 32.1825C5.65246 32.516 6.07911 32.7283 6.53891 32.7833C6.99872 32.8384 7.46342 32.7329 7.85437 32.4847C10.3862 34.5891 13.4617 35.9343 16.7256 36.3652C16.7999 36.8301 17.0352 37.2541 17.3904 37.5631C17.7456 37.8722 18.198 38.0467 18.6687 38.0561C19.1394 38.0655 19.5985 37.9093 19.9657 37.6146C20.333 37.32 20.585 36.9058 20.6779 36.4442C23.9911 36.139 27.1479 34.8923 29.7755 32.8512C30.1565 33.0977 30.6098 33.208 31.0614 33.1641C31.5131 33.1201 31.9366 32.9244 32.2629 32.609C32.5891 32.2936 32.799 31.8769 32.8582 31.427C32.9174 30.9771 32.8224 30.5203 32.5889 30.1312C34.8 27.4583 36.1647 24.1873 36.5089 20.7354C36.9445 20.6235 37.33 20.3686 37.6035 20.0115C37.877 19.6544 38.0228 19.2158 38.0174 18.7661C38.012 18.3163 37.8558 17.8814 37.5738 17.5309C37.2918 17.1805 36.9004 16.9349 36.4622 16.8334L36.4478 16.819ZM30.7708 8.71672C31.1676 8.71895 31.5559 8.60123 31.8846 8.37897C33.8759 10.7898 35.1452 13.7144 35.5459 16.8154C35.2799 16.8746 35.0288 16.9878 34.8082 17.1478C34.5875 17.3079 34.4021 17.5115 34.2632 17.746L29.1252 15.8094C29.1252 15.7555 29.1252 15.698 29.1252 15.6405C29.1237 15.3217 29.0464 15.0077 28.8996 14.7247C28.7527 14.4417 28.5406 14.1977 28.2808 14.0129L30.5408 8.70234C30.6091 8.70953 30.6881 8.71672 30.7708 8.71672ZM29.6929 8.39694L27.4544 13.6536C27.344 13.6349 27.2322 13.6253 27.1203 13.6248C26.7106 13.6252 26.3108 13.7507 25.9744 13.9844C25.638 14.2181 25.3809 14.5489 25.2375 14.9327L15.9423 12.7769C15.942 12.643 15.9287 12.5094 15.9028 12.378L29.1036 7.81127C29.2561 8.0438 29.4541 8.24303 29.6857 8.39694H29.6929ZM18.7018 4.02421C19.1692 4.02362 19.6219 3.86059 19.9824 3.56302C20.3429 3.26545 20.5888 2.85183 20.6779 2.39297C23.7173 2.68968 26.6151 3.82267 29.0497 5.66623C28.8546 5.97781 28.749 6.33703 28.7443 6.70461C28.746 6.7936 28.7532 6.8824 28.7659 6.9705L15.5255 11.5876C15.421 11.4534 15.3003 11.3327 15.1662 11.2283L18.6443 4.04217L18.7018 4.02421ZM16.7435 2.47201C16.8092 2.75068 16.9335 3.01213 17.1082 3.23891C17.283 3.46569 17.5041 3.65257 17.7568 3.78707L14.347 10.8474C14.2112 10.8185 14.0727 10.804 13.9338 10.8043C13.5238 10.8032 13.1236 10.9286 12.7876 11.1636L8.74544 7.78971C8.88394 7.49859 8.95007 7.17831 8.93818 6.85613C8.92629 6.53396 8.83675 6.21943 8.67717 5.9393C11.005 4.07883 13.7918 2.88096 16.7435 2.47201ZM3.97388 18.3245L12.3313 14.0129C12.5167 14.258 12.7561 14.4572 13.0309 14.5949C13.3057 14.7326 13.6085 14.8051 13.9158 14.8069L16.7903 23.9656C16.6176 24.1036 16.4683 24.2686 16.3483 24.4542L3.95232 19.309C4.00125 19.1359 4.02663 18.9571 4.02778 18.7772C4.02757 18.6247 4.00948 18.4728 3.97388 18.3245ZM5.95005 8.67001C6.30008 8.86572 6.70067 8.95217 7.10025 8.91823C7.49984 8.88429 7.88011 8.73152 8.19211 8.47958L12.184 11.8103C12.0119 12.1125 11.9215 12.4543 11.9217 12.802C11.922 12.9359 11.9353 13.0695 11.9612 13.2008L3.59302 17.5304C3.32055 17.1854 2.94153 16.9403 2.51511 16.8334C2.90111 13.8561 4.08834 11.0396 5.95005 8.68438V8.67001ZM6.78005 28.7443C6.42925 28.7452 6.08483 28.8381 5.78118 29.0138C3.94424 26.6068 2.8022 23.7424 2.47918 20.7318C2.88362 20.6341 3.24772 20.4131 3.52116 20.0995L16.0357 25.313C16.0244 25.3939 16.0184 25.4756 16.0178 25.5573C16.0202 25.7866 16.0615 26.0137 16.1399 26.2292L8.57297 29.8618C8.40709 29.5276 8.15158 29.2461 7.83497 29.0488C7.51835 28.8515 7.15311 28.7461 6.78005 28.7443ZM16.7615 35.4561C13.7246 35.0374 10.8637 33.7836 8.49752 31.8343C8.69895 31.511 8.80483 31.1373 8.80293 30.7564V30.7349L16.6358 26.9801C16.8417 27.1779 17.0864 27.3308 17.3544 27.4293L17.8215 34.1734C17.5643 34.3004 17.337 34.4803 17.1543 34.7014C16.9716 34.9225 16.8378 35.1797 16.7615 35.4561ZM17.5951 23.5991L14.7925 14.6381C15.2128 14.4407 15.5509 14.1026 15.7483 13.6823L25.1189 15.8381C25.1493 16.1639 25.2591 16.4773 25.4387 16.7508L19.0108 23.8003C18.7112 23.6322 18.3733 23.5443 18.0299 23.5452C17.8873 23.5469 17.7453 23.5625 17.6059 23.5919L17.5951 23.5991ZM20.66 35.5352C20.5583 35.092 20.3092 34.6964 19.9535 34.4131C19.5978 34.1298 19.1565 33.9757 18.7018 33.9758L18.2418 27.5586C18.7103 27.505 19.1451 27.2889 19.4707 26.9478L28.8377 31.0798C28.8377 31.0798 28.8377 31.1121 28.8377 31.1301C28.8385 31.5006 28.9417 31.8638 29.1359 32.1793C26.6803 34.069 23.7437 35.2317 20.66 35.5352ZM29.0641 30.2139L19.9378 26.1897C20.0072 25.9861 20.0425 25.7724 20.042 25.5573C20.0444 25.1438 19.9189 24.7397 19.6827 24.4003L26.0819 17.3688C26.3949 17.5588 26.754 17.6594 27.1203 17.6598C27.2028 17.6651 27.2856 17.6651 27.3682 17.6598L29.7611 29.4629C29.4676 29.6485 29.2273 29.9073 29.0641 30.2139ZM31.9385 29.4629C31.6112 29.2471 31.2276 29.1321 30.8355 29.1324C30.7564 29.1324 30.6774 29.1324 30.6019 29.1324L28.2161 17.3328C28.4757 17.1638 28.6932 16.9376 28.8521 16.6717L33.9866 18.594C33.983 18.655 33.983 18.7162 33.9866 18.7772C33.9866 19.2422 34.1477 19.6928 34.4425 20.0524C34.7373 20.4121 35.1475 20.6585 35.6034 20.7498C35.2569 23.9473 33.9872 26.9748 31.9493 29.4629H31.9385Z" fill="url(#paint0_linear_330_19)"/>
</g>
<defs>
<linearGradient id="paint0_linear_330_19" x1="19" y1="2.62292" x2="19" y2="44.5789" gradientUnits="userSpaceOnUse">
<stop stop-color="#A1EBFF"/>
<stop offset="0.06" stop-color="#9BEAFF"/>
<stop offset="0.13" stop-color="#8BE6FF"/>
<stop offset="0.21" stop-color="#6FE1FF"/>
<stop offset="0.3" stop-color="#49D8FF"/>
<stop offset="0.39" stop-color="#19CEFF"/>
<stop offset="0.44" stop-color="#00C9FF"/>
<stop offset="0.53" stop-color="#00B5FC"/>
<stop offset="0.71" stop-color="#0080F6"/>
<stop offset="0.97" stop-color="#002CEB"/>
<stop offset="1" stop-color="#0023EA"/>
</linearGradient>
<clipPath id="clip0_330_19">
<rect width="38" height="38" fill="white"/>
</clipPath>
</defs>
</svg>
