<svg width="38" height="38" viewBox="0 0 38 38" fill="none" xmlns="http://www.w3.org/2000/svg">
  <g clip-path="url(#clip0_205_296)">
    <path d="M36.448 16.819C36.0359 13.4708 34.6632 10.3136 32.4957 7.72864C32.7213 7.33904 32.8094 6.88496 32.746 6.43925C32.6826 5.99354 32.4713 5.58206 32.146 5.27085C31.8207 4.95964 31.4003 4.76674 30.9522 4.72311C30.5041 4.67948 30.0544 4.78765 29.6751 5.03026C27.0584 3.0219 23.9268 1.79492 20.6422 1.49112C20.5269 1.05617 20.2688 0.672553 19.9094 0.401789C19.55 0.131024 19.1101 -0.0112041 18.6602 -0.00209018C18.2103 0.00702372 17.7765 0.166952 17.4283 0.45205C17.0802 0.737148 16.8378 1.1309 16.7402 1.57016C13.5668 1.98838 10.569 3.26975 8.07378 5.27459C7.68589 5.00321 7.21461 4.87756 6.7431 4.91982C6.27159 4.96208 5.83016 5.16953 5.4967 5.50556C5.16325 5.84159 4.95921 6.28461 4.92058 6.75643C4.88195 7.22825 5.01123 7.69856 5.28559 8.08435C3.28748 10.598 2.02178 13.6143 1.62787 16.8011C1.16711 16.8835 0.749505 17.124 0.446968 17.4812C0.14443 17.8384 -0.024113 18.2899 -0.0296445 18.7579C-0.0351761 19.226 0.12265 19.6813 0.416662 20.0455C0.710674 20.4098 1.12247 20.6601 1.58116 20.7534C1.90834 23.9915 3.13557 27.0732 5.1239 29.6498C4.86121 30.0312 4.73839 30.4916 4.77621 30.9531C4.81403 31.4147 5.01017 31.849 5.33144 32.1825C5.65271 32.516 6.07935 32.7283 6.53916 32.7834C6.99896 32.8384 7.46367 32.7329 7.85461 32.4847C10.3865 34.5891 13.4619 35.9344 16.7258 36.3652C16.8002 36.8301 17.0355 37.2541 17.3906 37.5631C17.7458 37.8722 18.1983 38.0467 18.669 38.0561C19.1397 38.0655 19.5988 37.9093 19.966 37.6147C20.3332 37.32 20.5853 36.9058 20.6782 36.4442C23.9914 36.139 27.1481 34.8923 29.7758 32.8512C30.1567 33.0978 30.61 33.208 31.0617 33.1641C31.5134 33.1201 31.9368 32.9244 32.2631 32.609C32.5894 32.2936 32.7992 31.8769 32.8584 31.427C32.9176 30.9771 32.8227 30.5203 32.5891 30.1312C34.8002 27.4583 36.1649 24.1873 36.5091 20.7354C36.9448 20.6235 37.3302 20.3686 37.6037 20.0115C37.8773 19.6544 38.023 19.2159 38.0176 18.7661C38.0122 18.3163 37.856 17.8814 37.5741 17.5309C37.2921 17.1805 36.9006 16.9349 36.4624 16.8334L36.448 16.819ZM30.771 8.71672C31.1679 8.71896 31.5561 8.60123 31.8849 8.37898C33.8762 10.7898 35.1454 13.7144 35.5462 16.8154C35.2801 16.8747 35.029 16.9878 34.8084 17.1478C34.5878 17.3079 34.4023 17.5115 34.2635 17.746L29.1254 15.8094C29.1254 15.7555 29.1254 15.698 29.1254 15.6405C29.124 15.3217 29.0466 15.0077 28.8998 14.7247C28.753 14.4417 28.5409 14.1977 28.281 14.0129L30.5411 8.70235C30.6093 8.70954 30.6884 8.71672 30.771 8.71672ZM29.6931 8.39694L27.4547 13.6536C27.3442 13.6349 27.2325 13.6253 27.1205 13.6248C26.7108 13.6252 26.3111 13.7507 25.9746 13.9844C25.6382 14.2181 25.3811 14.5489 25.2377 14.9327L15.9425 12.7769C15.9422 12.643 15.929 12.5094 15.903 12.378L29.1039 7.81128C29.2563 8.0438 29.4543 8.24303 29.6859 8.39694H29.6931ZM18.702 4.02421C19.1694 4.02363 19.6222 3.8606 19.9827 3.56302C20.3432 3.26545 20.589 2.85184 20.6782 2.39297C23.7176 2.68968 26.6154 3.82268 29.05 5.66623C28.8549 5.97782 28.7492 6.33704 28.7446 6.70462C28.7462 6.79361 28.7534 6.88241 28.7661 6.97051L15.5258 11.5876C15.4213 11.4534 15.3006 11.3327 15.1664 11.2283L18.6445 4.04218L18.702 4.02421ZM16.7438 2.47202C16.8094 2.75068 16.9337 3.01214 17.1085 3.23891C17.2832 3.46569 17.5043 3.65257 17.757 3.78707L14.3472 10.8474C14.2114 10.8185 14.0729 10.804 13.934 10.8043C13.5241 10.8032 13.1238 10.9286 12.7879 11.1636L8.74568 7.78972C8.88419 7.49859 8.95031 7.17832 8.93843 6.85614C8.92654 6.53397 8.837 6.21943 8.67742 5.9393C11.0053 4.07883 13.792 2.88097 16.7438 2.47202ZM3.97413 18.3245L12.3315 14.0129C12.5169 14.258 12.7563 14.4572 13.0311 14.5949C13.3059 14.7326 13.6087 14.8051 13.9161 14.8069L16.7905 23.9656C16.6178 24.1036 16.4686 24.2686 16.3486 24.4542L3.95257 19.309C4.0015 19.1359 4.02688 18.9571 4.02802 18.7772C4.02781 18.6247 4.00972 18.4728 3.97413 18.3245ZM5.9503 8.67001C6.30032 8.86572 6.70091 8.95218 7.1005 8.91824C7.50008 8.8843 7.88035 8.73152 8.19236 8.47958L12.1842 11.8103C12.0121 12.1125 11.9217 12.4543 11.9219 12.802C11.9223 12.9359 11.9355 13.0695 11.9615 13.2008L3.59326 17.5305C3.32079 17.1854 2.94177 16.9403 2.51535 16.8334C2.90136 13.8562 4.08858 11.0396 5.9503 8.68439V8.67001ZM6.78029 28.7443C6.42949 28.7452 6.08507 28.8381 5.78142 29.0138C3.94448 26.6068 2.80244 23.7424 2.47942 20.7319C2.88387 20.6341 3.24796 20.4131 3.5214 20.0995L16.036 25.313C16.0246 25.3939 16.0186 25.4756 16.018 25.5573C16.0205 25.7866 16.0618 26.0137 16.1402 26.2292L8.57322 29.8618C8.40734 29.5276 8.15182 29.2461 7.83521 29.0488C7.5186 28.8515 7.15336 28.7461 6.78029 28.7443ZM16.7618 35.4561C13.7249 35.0374 10.8639 33.7836 8.49776 31.8343C8.6992 31.511 8.80508 31.1374 8.80317 30.7564V30.7349L16.636 26.9802C16.8419 27.1779 17.0866 27.3308 17.3546 27.4293L17.8217 34.1734C17.5646 34.3004 17.3372 34.4803 17.1545 34.7014C16.9719 34.9225 16.838 35.1797 16.7618 35.4561ZM17.5953 23.5991L14.7928 14.6381C15.2131 14.4407 15.5512 14.1026 15.7485 13.6823L25.1192 15.8381C25.1496 16.1639 25.2594 16.4773 25.439 16.7508L19.011 23.8003C18.7115 23.6322 18.3736 23.5443 18.0301 23.5452C17.8876 23.5469 17.7456 23.5625 17.6061 23.5919L17.5953 23.5991ZM20.6602 35.5352C20.5585 35.092 20.3095 34.6964 19.9537 34.4131C19.598 34.1299 19.1567 33.9757 18.702 33.9758L18.2421 27.5586C18.7105 27.505 19.1453 27.2889 19.4709 26.9478L28.838 31.0798C28.838 31.0798 28.838 31.1121 28.838 31.1301C28.8387 31.5006 28.9419 31.8638 29.1362 32.1793C26.6806 34.069 23.7439 35.2317 20.6602 35.5352ZM29.0643 30.2139L19.938 26.1897C20.0075 25.9861 20.0427 25.7724 20.0422 25.5573C20.0446 25.1438 19.9191 24.7397 19.6829 24.4003L26.0821 17.3688C26.3952 17.5588 26.7543 17.6594 27.1205 17.6598C27.2031 17.6651 27.2859 17.6651 27.3684 17.6598L29.7614 29.4629C29.4678 29.6485 29.2276 29.9073 29.0643 30.2139ZM31.9388 29.4629C31.6114 29.2471 31.2278 29.1321 30.8357 29.1324C30.7567 29.1324 30.6776 29.1324 30.6022 29.1324L28.2164 17.3328C28.4759 17.1638 28.6935 16.9377 28.8523 16.6717L33.9868 18.594C33.9832 18.655 33.9832 18.7162 33.9868 18.7772C33.9869 19.2422 34.148 19.6928 34.4428 20.0524C34.7375 20.4121 35.1477 20.6585 35.6037 20.7498C35.2572 23.9473 33.9875 26.9748 31.9495 29.4629H31.9388Z" fill="url(#paint0_linear_205_296)"/>
  </g>
  <defs>
    <linearGradient id="paint0_linear_205_296" x1="19.0002" y1="2.62293" x2="19.0002" y2="44.5789" gradientUnits="userSpaceOnUse">
      <stop stop-color="#A1EBFF"/>
      <stop offset="0.06" stop-color="#9BEAFF"/>
      <stop offset="0.13" stop-color="#8BE6FF"/>
      <stop offset="0.21" stop-color="#6FE1FF"/>
      <stop offset="0.3" stop-color="#49D8FF"/>
      <stop offset="0.39" stop-color="#19CEFF"/>
      <stop offset="0.44" stop-color="#00C9FF"/>
      <stop offset="0.53" stop-color="#00B5FC"/>
      <stop offset="0.71" stop-color="#0080F6"/>
      <stop offset="0.97" stop-color="#002CEB"/>
      <stop offset="1" stop-color="#0023EA"/>
    </linearGradient>
    <clipPath id="clip0_205_296">
      <rect width="38" height="38" fill="white"/>
    </clipPath>
  </defs>
</svg>